<?xml version="1.0" encoding="UTF-8"?>
<svg id="Livello_1" xmlns="http://www.w3.org/2000/svg" version="1.1" viewBox="0 0 1152 96">
  <!-- Generator: Adobe Illustrator 30.6.0, SVG Export Plug-In . SVG Version: 2.1.4 Build 109)  -->
  <defs>
    <style>
      .st0 {
        fill: #641a10;
      }

      .st1 {
        fill: #048937;
      }

      .st2 {
        fill: #651a0f;
      }

      .st3 {
        fill: #e73a38;
      }

      .st4 {
        fill: #084a23;
      }

      .st5 {
        stroke: #e73a38;
        stroke-miterlimit: 10;
        stroke-width: 2px;
      }
    </style>
  </defs>
  <rect id="base_x5F_black_-_z-index:1" x="0" y="0" width="1152" height="96" transform="translate(1152 96) rotate(-180)"/>
  <polygon id="trapezioSotto3_-_z-index:2" class="st2" points="449.32 96 491.32 96 574.77 0 532.77 0 449.32 96"/>
  <polygon id="trapezioSotto2_-_z-index:2" class="st2" points="846.42 96 888.42 96 971.88 0 929.88 0 846.42 96"/>
  <polygon id="trapezio-base_-_z-index:3" class="st5" points="65.78 83.49 2678.24 83.49 2622.22 16.74 9.76 16.74 65.78 83.49"/>
  <polygon class="st4" points="998.06 82.46 1016.05 82.46 961.77 17.77 943.79 17.77 998.06 82.46"/>
  <polygon points="1026.21 82.46 1044.19 82.46 989.92 17.77 971.93 17.77 1026.21 82.46"/>
  <polygon class="st1" points="1012.42 96 1054.42 96 973.86 0 931.86 0 1012.42 96"/>
  <polygon class="st0" points="600.28 82.46 618.26 82.46 563.99 17.77 546 17.77 600.28 82.46"/>
  <polygon points="629.6 82.46 647.59 82.46 593.31 17.77 575.33 17.77 629.6 82.46"/>
  <polygon id="_trapezio3_-_z-index:5" class="st3" points="614.72 96 656.72 96 576.16 0 534.16 0 614.72 96"/>
  <polygon class="st0" points="998.06 82.46 1016.05 82.46 961.77 17.77 943.79 17.77 998.06 82.46"/>
  <polygon points="1026.21 82.46 1044.19 82.46 989.92 17.77 971.93 17.77 1026.21 82.46"/>
  <polygon id="trapezio2_-_z-index:5" class="st3" points="1012.42 96 1054.42 96 973.86 0 931.86 0 1012.42 96"/>
</svg>